<svg xmlns="http://www.w3.org/2000/svg" viewBox="0 0 960 232.3"><g fill="#949CA1"><path d="M588.6 214.8h-9.2V194c0-.5-.1-1.1-.2-1.9-.1-.8-.4-1.5-.9-2.3-.5-.7-1.1-1.4-2-1.9-.9-.5-2.1-.8-3.6-.8-2 0-3.7.6-5 1.9s-1.9 2.9-1.9 4.9v20.9h-9.2V194c0-.5-.1-1.1-.2-1.9-.1-.8-.4-1.5-.9-2.3-.4-.7-1.1-1.4-2-1.9-.9-.5-2.1-.8-3.6-.8-2.1 0-3.8.6-5 1.9-1.3 1.2-1.9 2.9-1.9 4.9v20.9h-9.2v-20.7c0-2.3.4-4.4 1.1-6.3.8-1.9 1.8-3.6 3.2-5.1 1.4-1.4 3.1-2.6 5.1-3.4 2-.8 4.2-1.2 6.7-1.2s4.6.5 6.6 1.4c1.9.9 3.5 2.1 4.8 3.7 1.3-1.6 3-2.8 4.9-3.7 1.9-.9 4.1-1.4 6.4-1.4 2.5 0 4.7.4 6.7 1.2 2 .8 3.6 1.9 5 3.3s2.4 3.1 3.1 5c.7 1.9 1.1 4.1 1.1 6.4v20.8h.1z"/><path fill-rule="evenodd" clip-rule="evenodd" d="M610.4 207.3c1.2 0 2.3-.2 3.4-.7 1.1-.5 2-1.2 2.8-2.1.8-.9 1.5-2 1.9-3.2.5-1.2.7-2.6.7-4.2 0-1.5-.2-2.9-.7-4.2-.5-1.3-1.1-2.4-1.9-3.3-.8-.9-1.8-1.6-2.8-2.1-1.1-.5-2.2-.8-3.4-.8-1.2 0-2.4.3-3.4.8-1.1.5-2 1.2-2.8 2.1-.8.9-1.4 2-1.9 3.3-.5 1.3-.7 2.7-.7 4.2s.2 2.9.7 4.2c.5 1.2 1.1 2.3 1.9 3.2.8.9 1.7 1.6 2.8 2.1 1 .4 2.2.7 3.4.7zm-.1-29.1c2.5 0 4.8.5 7 1.4 2.2.9 4.1 2.3 5.7 4 1.6 1.7 2.9 3.7 3.9 6 .9 2.3 1.4 4.8 1.4 7.5s-.5 5.2-1.4 7.4c-.9 2.3-2.2 4.2-3.9 5.9-1.6 1.7-3.5 3-5.7 3.9-2.2.9-4.5 1.4-7 1.4s-4.8-.5-7-1.4c-2.2-.9-4.1-2.3-5.7-3.9-1.6-1.7-2.9-3.6-3.8-5.9-.9-2.3-1.4-4.7-1.4-7.4s.5-5.2 1.4-7.5c.9-2.3 2.2-4.3 3.8-6 1.6-1.7 3.5-3 5.7-4 2.2-.9 4.5-1.4 7-1.4zM660.4 197.1c0-1.5-.2-2.8-.7-4.1-.5-1.2-1.1-2.3-2-3.3-.8-.9-1.8-1.6-2.9-2.1-1.1-.5-2.3-.8-3.6-.8s-2.4.3-3.6.8c-1.1.5-2.1 1.3-2.9 2.2-.8.9-1.5 2-2 3.3-.5 1.2-.7 2.6-.7 4s.2 2.7.7 3.9c.5 1.2 1.1 2.3 2 3.2.8.9 1.8 1.6 2.9 2.1 1.1.5 2.3.8 3.6.8s2.4-.3 3.6-.8c1.1-.5 2.1-1.2 2.9-2.1.8-.9 1.5-2 2-3.2.5-1.2.7-2.5.7-3.9zm9.2-.1c0 2.6-.5 5-1.4 7.3-.9 2.3-2.2 4.2-3.8 5.9-1.6 1.7-3.5 3-5.8 4-2.2 1-4.7 1.5-7.4 1.5s-5.2-.5-7.5-1.5c-2.2-1-4.2-2.3-5.8-4-1.6-1.7-2.9-3.7-3.8-5.9-.9-2.3-1.4-4.7-1.4-7.3v-33.8h9.2l.1 19.2c1.3-1.4 2.9-2.5 4.6-3.2 1.8-.7 3.7-1 5.8-1 2.4 0 4.6.5 6.7 1.5 2.1 1 3.9 2.3 5.4 4 1.5 1.7 2.7 3.7 3.6 6 1 2.3 1.5 4.7 1.5 7.3z"/><path d="M684.1 214.8h-9.2v-35.7h9.2v35.7M713.1 214.8h-9.9l-13.5-35.7h9.6l8.8 26.6 9-26.6h9.4l-13.4 35.7M741.2 214.8H732v-35.7h9.2v35.7M763.4 214.8c-2.6.3-4.9.1-6.9-.5s-3.7-1.6-5-2.9c-1.3-1.3-2.4-3-3.1-5s-1-4.2-1-6.6V170h9.2v9.1h6.4v8.1h-6.4v12.6c0 2.5.6 4.3 1.7 5.3s2.9 1.5 5.2 1.3v8.4h-.1zM800 216.3c0 2.4-.4 4.6-1.1 6.6-.8 2-1.8 3.7-3.2 5.1-1.4 1.4-3.1 2.5-5 3.3-1.9.8-4.1 1.1-6.5 1.1-1.9 0-3.8-.3-5.5-.9-1.8-.6-3.3-1.5-4.7-2.6-1.4-1.1-2.5-2.4-3.4-4-.9-1.5-1.5-3.2-1.9-5.1h9.5c.3 1.3 1 2.3 2 3 1.1.6 2.4 1 4 1 1.2 0 2.3-.2 3.2-.6.9-.4 1.5-.9 2.1-1.6.5-.7.9-1.4 1.1-2.2.2-.8.3-1.6.3-2.5v-4.2c-1.1.9-2.3 1.6-3.7 2.1-1.4.5-2.9.8-4.5.8-2.2 0-4.2-.4-6-1.1-1.8-.8-3.3-1.8-4.6-3.2-1.3-1.4-2.3-3-2.9-4.9-.7-1.9-1-4.1-1-6.4v-20.9h9.2V200c0 .5.1 1.2.2 1.9.1.8.4 1.6.9 2.3.5.8 1.1 1.4 2 1.9.9.5 2.1.8 3.5.8 2.1 0 3.8-.7 5-2 1.3-1.3 1.9-3 1.9-5V179h9.2v37.3h-.1zM687.5 168.7c0-2.5 2-4.5 4.5-4.5s4.5 2 4.5 4.5-2 4.5-4.5 4.5-4.5-2-4.5-4.5zM675 168.7c0-2.5 2-4.5 4.5-4.5s4.5 2 4.5 4.5-2 4.5-4.5 4.5-4.5-2-4.5-4.5zM719 168.7c0-2.5 2-4.5 4.5-4.5s4.5 2 4.5 4.5-2 4.5-4.5 4.5-4.5-2-4.5-4.5zM732.2 168.7c0-2.5 2-4.5 4.5-4.5s4.5 2 4.5 4.5-2 4.5-4.5 4.5-4.5-2-4.5-4.5z"/><g stroke="#949CA1" stroke-miterlimit="10"><path d="M160 180.8h3.9v6.5c1.9-4.7 6.9-7.5 12.4-7.5 10.5 0 15.5 8.5 15.5 18.2s-5 18.2-15.5 18.2c-5.1 0-10.1-2.6-11.9-7.5h-.1V228H160v-47.2zm16.3 2.5c-9.3 0-12.1 6.9-12.1 14.7 0 7.1 3.1 14.7 12.1 14.7 8 0 11.3-7.5 11.3-14.7-.1-7.1-3.4-14.7-11.3-14.7zM230.7 198c0 9.9-5.7 18.2-16.3 18.2-10.5 0-16.3-8.3-16.3-18.2s5.7-18.2 16.3-18.2c10.6 0 16.3 8.3 16.3 18.2zm-28.3 0c0 7.3 4 14.7 12.1 14.7s12.1-7.3 12.1-14.7c0-7.3-4-14.7-12.1-14.7s-12.1 7.4-12.1 14.7zM235.2 180.8h4.5l8.8 29.4h.1l8.4-29.4h4.7l8.4 29.4h.1l8.8-29.4h4.5l-11.1 34.4h-4.6l-8.5-28.9h-.1l-8.4 28.9h-4.6l-11-34.4zM292.2 199.1c.1 6.1 3.3 13.5 11.3 13.5 6.1 0 9.5-3.6 10.8-8.8h4.2c-1.8 7.8-6.3 12.3-15 12.3-10.9 0-15.5-8.4-15.5-18.2 0-9.1 4.6-18.2 15.5-18.2 11.1 0 15.5 9.7 15.1 19.3h-26.4zm22.2-3.5c-.2-6.3-4.1-12.3-10.9-12.3-6.9 0-10.7 6-11.3 12.3h22.2zM326 180.8h3.9v8.1h.1c2.1-5.5 6.8-8.8 13-8.5v4.2c-7.6-.4-12.8 5.2-12.8 12.3v18.3H326v-34.4zM349.9 199.1c.1 6.1 3.3 13.5 11.3 13.5 6.1 0 9.5-3.6 10.8-8.8h4.2c-1.8 7.8-6.3 12.3-15 12.3-10.9 0-15.5-8.4-15.5-18.2 0-9.1 4.6-18.2 15.5-18.2 11.1 0 15.5 9.7 15.1 19.3h-26.4zm22.3-3.5c-.2-6.3-4.1-12.3-10.9-12.3-6.9 0-10.7 6-11.3 12.3h22.2zM414 215.2h-3.9v-6.5h-.1c-1.8 4.5-7.3 7.5-12.3 7.5-10.5 0-15.5-8.5-15.5-18.2s5-18.2 15.5-18.2c5.1 0 10.1 2.6 11.9 7.5h.1v-19.7h4.2v47.6zm-16.3-2.5c8.9 0 12.1-7.5 12.1-14.7 0-7.1-3.1-14.7-12.1-14.7-8 0-11.3 7.5-11.3 14.7 0 7.1 3.3 14.7 11.3 14.7zM443.8 167.6h4.2v19.7h.1c1.8-4.9 6.8-7.5 11.9-7.5 10.5 0 15.5 8.5 15.5 18.2s-5 18.2-15.5 18.2c-5.5 0-10.3-2.9-12.3-7.5h-.1v6.5h-3.9v-47.6zm16.3 15.7c-8.9 0-12.1 7.5-12.1 14.7 0 7.1 3.1 14.7 12.1 14.7 8 0 11.3-7.5 11.3-14.7-.1-7.1-3.3-14.7-11.3-14.7zM479.9 180.8h4.5l11.3 29.3 10.6-29.3h4.2l-14.9 39.6c-2.4 5.8-3.8 7.5-9.1 7.5-1.7-.1-2.5-.1-3.2-.3v-3.5c1 .2 1.9.3 2.9.3 3.7 0 4.6-2.2 6-5.4l1.5-3.9-13.8-34.3z"/></g></g><g fill="#8DC63F"><path d="M5.1 87.9c5.9 3.6 17.1 7.4 26.4 7.4 11.4 0 16.5-4.6 16.5-11.4 0-7-4.2-10.6-16.9-15-20-7-28.5-17.9-28.3-30 0-18.1 15-32.3 38.8-32.3 11.4 0 21.3 3 27.2 6.1l-5.1 18.4C59.3 28.6 51 25.2 42 25.2c-9.3 0-14.3 4.4-14.3 10.8 0 6.5 4.9 9.7 17.9 14.3C64.1 57.1 72.8 66.6 73 81.8c0 18.6-14.6 32.1-41.8 32.1-12.4 0-23.6-3-31.2-7.2l5.1-18.8zM84.9 56.1c0-10.2-.3-18.9-.7-26.1h21.4l1.2 11h.5c3.5-5.2 10.7-12.9 24.7-12.9 10.5 0 18.9 5.3 22.4 13.9h.3c3-4.2 6.7-7.5 10.5-9.9 4.5-2.7 9.5-4 15.5-4 15.7 0 27.6 11 27.6 35.4v48.1h-24.7V67.3c0-11.9-3.8-18.7-12-18.7-5.8 0-10 4-11.7 8.9-.7 1.8-1 4.5-1 6.5v47.8h-24.7V65.9c0-10.4-3.7-17.4-11.7-17.4-6.5 0-10.4 5-11.9 9.2-.8 2-1 4.3-1 6.4v47.6H84.9V56.1zM271.9 111.7l-1.5-8.2h-.5c-5.3 6.5-13.7 10-23.4 10-16.5 0-26.4-12-26.4-25.1 0-21.2 19.1-31.4 48-31.2V56c0-4.3-2.3-10.5-14.9-10.5-8.4 0-17.2 2.8-22.6 6.2l-4.7-16.4c5.7-3.2 16.9-7.2 31.8-7.2 27.2 0 35.9 16 35.9 35.3v28.4c0 7.9.3 15.4 1.2 19.9h-22.9zm-3-38.6c-13.4-.2-23.7 3-23.7 12.9 0 6.5 4.3 9.7 10 9.7 6.3 0 11.5-4.2 13.2-9.4.3-1.3.5-2.8.5-4.3v-8.9zM307.5 56.9c0-12-.3-19.9-.7-26.9h21.9l.8 15h.7c4.2-11.9 14.2-16.9 22.1-16.9 2.3 0 3.5 0 5.3.3v23.9c-1.8-.3-4-.7-6.9-.7-9.4 0-15.7 5-17.4 12.9-.3 1.7-.5 3.7-.5 5.7v41.4h-25.4V56.9zM401.1 6.6V30h18.2v18.7h-18.2v29.6c0 9.9 2.3 14.4 10 14.4 3.2 0 5.7-.3 7.5-.7l.2 19.2c-3.3 1.3-9.4 2.2-16.5 2.2-8.2 0-15-2.8-19.1-7-4.7-4.8-7-12.7-7-24.2V48.7h-10.9V30h10.9V12.3l24.9-5.7zM434.4 8.6c7.6-1.2 18.8-2.2 31.3-2.2 15.4 0 26.2 2.3 33.6 8.2 6.2 4.9 9.6 12.2 9.6 21.7 0 13.3-9.4 22.4-18.3 25.6v.5c7.2 2.9 11.3 9.9 13.9 19.4 3.2 11.7 6.5 25.3 8.5 29.3h-24.1c-1.7-2.9-4.2-11.4-7.2-24.2-2.8-13-7.2-16.5-16.8-16.7h-7.1v40.9h-23.3V8.6zm23.3 44.7h9.3c11.7 0 18.7-5.9 18.7-15 0-9.6-6.5-14.3-17.3-14.5-5.7 0-8.9.5-10.6.8v28.7zM542.5 78.3c.8 10.5 11.2 15.5 23.1 15.5 8.7 0 15.7-1.2 22.6-3.3l3.3 17.2c-8.4 3.3-18.5 5-29.6 5-27.7 0-43.6-16-43.6-41.6 0-20.7 12.9-43.6 41.3-43.6 26.4 0 36.4 20.6 36.4 40.8 0 4.3-.5 8.2-.8 10h-52.7zM572.4 61c0-6.2-2.7-16.5-14.4-16.5-10.7 0-15 9.7-15.7 16.5h30.1zM669.3 109.1c-4.5 2-13 3.7-22.7 3.7-26.4 0-43.3-16-43.3-41.8 0-23.9 16.4-43.4 46.8-43.4 6.7 0 14 1.2 19.4 3.2l-4 18.9c-3-1.3-7.5-2.5-14.2-2.5-13.4 0-22.1 9.5-21.9 22.9 0 15 10 22.9 22.4 22.9 6 0 10.7-1 14.5-2.5l3 18.6zM697.9 78.3c.8 10.5 11.2 15.5 23.1 15.5 8.7 0 15.7-1.2 22.6-3.3l3.3 17.2c-8.4 3.3-18.5 5-29.6 5-27.7 0-43.6-16-43.6-41.6 0-20.7 12.9-43.6 41.3-43.6 26.4 0 36.4 20.6 36.4 40.8 0 4.3-.5 8.2-.8 10h-52.7zM727.8 61c0-6.2-2.7-16.5-14.4-16.5-10.7 0-15 9.7-15.7 16.5h30.1zM787.5 12.2c0 6.6-5.1 12-13 12-7.6 0-12.7-5.4-12.5-12-.2-7 4.9-12.2 12.7-12.2 7.7 0 12.6 5.2 12.8 12.2zm-24.8 98.9V33.7h24.1v77.4h-24.1zM800.4 58.3c0-10.4-.3-19.3-.6-26.6h21.4l1.1 11h.3c5.8-8.4 14.9-12.8 26.5-12.8 17.4 0 32.9 15.1 32.9 40.4 0 28.9-18.3 42.5-36 42.5-9.6 0-17-3.9-20.6-9.1h-.3v39.4h-24.7V58.3zM825.1 77c0 1.9.2 3.7.5 5.2 1.6 6.7 7.3 11.7 14.4 11.7 10.7 0 17-8.9 17-22.4 0-12.7-5.7-22.2-16.7-22.2-7 0-13.1 5.2-14.8 12.5-.3 1.3-.5 2.9-.5 4.4V77zM923.1 6v23.4h18.2v18.7h-18.2v29.6c0 9.9 2.3 14.4 10 14.4 3.2 0 5.7-.3 7.5-.7l.2 19.2c-3.3 1.3-9.4 2.2-16.5 2.2-8.2 0-15-2.8-19.1-7-4.7-4.8-7-12.7-7-24.2V48.1h-10.9V29.4h10.9V11.7L923.1 6zM938.9 10.8h-4.2V9.3h10.1v1.5h-4.2V23h-1.8V10.8zM957.9 17c-.1-1.9-.2-4.2-.2-5.9h-.1c-.5 1.6-1 3.3-1.7 5.2l-2.4 6.6h-1.3l-2.2-6.5c-.6-1.9-1.2-3.7-1.6-5.3 0 1.7-.1 4-.3 6l-.4 5.9H946l1-13.7h2.3l2.3 6.6c.6 1.7 1 3.2 1.4 4.6h.1c.3-1.4.8-2.9 1.4-4.6l2.4-6.6h2.3L960 23h-1.7l-.4-6z"/></g></svg>