<svg xmlns="http://www.w3.org/2000/svg" viewBox="0 0 1991.6 143.2"><g fill="#949CA1"><path d="M1664.7 107.3h-14.2V75c0-.8-.1-1.8-.3-2.9-.2-1.2-.7-2.3-1.4-3.5-.7-1.1-1.8-2.1-3.1-2.9-1.4-.8-3.2-1.2-5.6-1.2-3.1 0-5.7 1-7.7 2.9s-3 4.5-3 7.6v32.3h-14.2V75c0-.8-.1-1.8-.3-2.9-.2-1.2-.7-2.3-1.3-3.5-.7-1.1-1.7-2.1-3.1-2.9-1.4-.8-3.2-1.2-5.6-1.2-3.2 0-5.8 1-7.8 2.9s-2.9 4.5-2.9 7.6v32.3H1580V75.4c0-3.5.6-6.8 1.8-9.8 1.2-3 2.8-5.6 5-7.8 2.1-2.2 4.8-3.9 7.8-5.2 3.1-1.3 6.5-1.9 10.3-1.9 3.8 0 7.2.7 10.1 2.1 3 1.4 5.4 3.3 7.5 5.7 2.1-2.4 4.6-4.3 7.6-5.7 3-1.4 6.3-2.1 10-2.1 3.9 0 7.3.6 10.3 1.8 3 1.2 5.6 2.9 7.7 5.1 2.1 2.2 3.7 4.8 4.8 7.8 1.1 3 1.7 6.3 1.7 10v31.9h.1z"/><path fill-rule="evenodd" clip-rule="evenodd" d="M1698.4 95.6c1.9 0 3.6-.4 5.3-1.1 1.7-.8 3.1-1.8 4.4-3.2 1.3-1.4 2.2-3.1 3-5 .7-1.9 1.1-4.1 1.1-6.4 0-2.4-.4-4.5-1.1-6.5-.7-2-1.7-3.7-3-5.1-1.3-1.4-2.7-2.5-4.4-3.3-1.7-.8-3.4-1.2-5.3-1.2s-3.6.4-5.3 1.2c-1.7.8-3.1 1.9-4.4 3.3-1.2 1.4-2.2 3.1-2.9 5.1-.7 2-1.1 4.2-1.1 6.5 0 2.4.4 4.5 1.1 6.4.7 1.9 1.7 3.6 2.9 5s2.7 2.5 4.4 3.2c1.7.7 3.5 1.1 5.3 1.1zm0-44.9c3.9 0 7.5.7 10.8 2.2 3.4 1.5 6.3 3.5 8.8 6.1 2.5 2.6 4.5 5.7 6 9.2 1.5 3.5 2.2 7.4 2.2 11.5s-.7 8-2.2 11.5c-1.5 3.5-3.5 6.5-6 9.1-2.5 2.6-5.5 4.6-8.8 6.1-3.4 1.5-7 2.2-10.8 2.2-3.9 0-7.5-.7-10.8-2.2-3.4-1.5-6.3-3.5-8.8-6.1-2.5-2.6-4.5-5.6-6-9.1s-2.2-7.3-2.2-11.5c0-4.1.7-8 2.2-11.5 1.5-3.5 3.4-6.6 6-9.2 2.5-2.6 5.4-4.6 8.8-6.1 3.3-1.5 6.9-2.2 10.8-2.2zM1775.8 79.9c0-2.3-.4-4.4-1.1-6.3-.8-1.9-1.8-3.6-3.1-5s-2.8-2.5-4.5-3.3c-1.7-.8-3.6-1.2-5.5-1.2s-3.8.4-5.5 1.2c-1.7.8-3.2 1.9-4.5 3.4-1.3 1.4-2.3 3.1-3.1 5-.8 1.9-1.1 4-1.1 6.2 0 2.1.4 4.2 1.1 6.1.8 1.9 1.8 3.5 3.1 4.9 1.3 1.4 2.8 2.5 4.5 3.3 1.7.8 3.6 1.2 5.5 1.2s3.8-.4 5.5-1.2c1.7-.8 3.2-1.9 4.5-3.3 1.3-1.4 2.3-3 3.1-4.9.7-1.9 1.1-3.9 1.1-6.1zm14.2-.2c0 4-.7 7.8-2.1 11.3-1.4 3.5-3.3 6.6-5.8 9.2-2.5 2.6-5.5 4.7-9 6.2s-7.3 2.3-11.4 2.3c-4.2 0-8.1-.8-11.5-2.3-3.5-1.5-6.5-3.6-9-6.2s-4.4-5.7-5.8-9.2c-1.4-3.5-2.1-7.3-2.1-11.3V27.5h14.2l.1 29.7c2.1-2.2 4.5-3.9 7.2-4.9 2.7-1 5.7-1.6 8.9-1.6 3.6 0 7.1.8 10.3 2.3 3.2 1.5 6 3.6 8.4 6.2 2.4 2.6 4.2 5.7 5.6 9.2 1.3 3.6 2 7.4 2 11.3z"/><path d="M1812.4 107.3h-14.1V52.1h14.1v55.2M1857.2 107.3H1842l-21-55.2h14.8l13.8 41.2 13.8-41.2h14.6l-20.8 55.2M1900.7 107.3h-14.2V52.1h14.2v55.2M1935.1 107.2c-4.1.4-7.6.2-10.7-.8-3.1-.9-5.6-2.4-7.7-4.5-2.1-2.1-3.6-4.6-4.7-7.7-1.1-3-1.6-6.5-1.6-10.2V38h14.2v14h10v12.5h-10V84c0 3.9.9 6.6 2.6 8.1 1.8 1.6 4.4 2.3 8 2v13.1h-.1zM1991.6 109.6c0 3.7-.6 7.1-1.8 10.1-1.2 3-2.8 5.6-5 7.8-2.1 2.2-4.7 3.9-7.7 5-3 1.2-6.4 1.8-10.1 1.8-3 0-5.9-.5-8.6-1.4-2.7-.9-5.1-2.3-7.2-4-2.1-1.7-3.9-3.8-5.3-6.1-1.4-2.4-2.4-5-2.9-7.8h14.7c.4 2.1 1.5 3.6 3.2 4.6 1.7 1 3.7 1.5 6.2 1.5 1.9 0 3.6-.3 4.9-.9 1.3-.6 2.4-1.4 3.2-2.5.8-1 1.4-2.2 1.8-3.4.4-1.3.5-2.5.5-3.8v-6.4c-1.6 1.4-3.5 2.5-5.7 3.3-2.1.8-4.5 1.2-7 1.2-3.4 0-6.4-.6-9.2-1.8-2.8-1.2-5.2-2.8-7.1-4.9-2-2.1-3.5-4.6-4.6-7.6-1.1-3-1.6-6.3-1.6-9.9V52.1h14.2v32.3c0 .8.1 1.8.3 3 .2 1.2.7 2.4 1.4 3.6.7 1.2 1.8 2.2 3.1 3 1.4.8 3.2 1.2 5.5 1.2 3.2 0 5.8-1 7.8-3.1 2-2 2.9-4.6 2.9-7.8V52.1h14.2v57.5h-.1zM1817.7 36c0-3.8 3.1-7 7-7 3.8 0 7 3.1 7 7s-3.1 7-7 7c-3.9-.1-7-3.2-7-7zM1798.3 36c0-3.8 3.1-7 7-7 3.8 0 7 3.1 7 7s-3.1 7-7 7c-3.9-.1-7-3.2-7-7zM1866.4 36c0-3.8 3.1-7 7-7 3.8 0 7 3.1 7 7s-3.1 7-7 7c-3.9-.1-7-3.2-7-7zM1886.7 36c0-3.8 3.1-7 7-7 3.8 0 7 3.1 7 7s-3.1 7-7 7c-3.9-.1-7-3.2-7-7z"/><g stroke="#949CA1" stroke-miterlimit="10"><path d="M1002.2 54.7h6v10.1c3-7.2 10.6-11.6 19.2-11.6 16.2 0 23.9 13.1 23.9 28.1s-7.7 28.1-23.9 28.1c-7.9 0-15.7-4-18.4-11.6h-.2v29.8h-6.5V54.7zm25.1 3.9c-14.3 0-18.6 10.6-18.6 22.7 0 11 4.8 22.7 18.6 22.7 12.4 0 17.4-11.6 17.4-22.7s-5-22.7-17.4-22.7zM1111.5 81.3c0 15.2-8.9 28.1-25.1 28.1s-25.1-12.9-25.1-28.1 8.9-28.1 25.1-28.1 25.1 12.8 25.1 28.1zm-43.8 0c0 11.3 6.2 22.7 18.6 22.7s18.6-11.3 18.6-22.7-6.2-22.7-18.6-22.7-18.6 11.4-18.6 22.7zM1118.4 54.7h6.9l13.6 45.5h.2l13-45.5h7.3l13 45.5h.2l13.6-45.5h6.9l-17.1 53.1h-7.1l-13.1-44.7h-.2l-13 44.7h-7.1l-17.1-53.1zM1206.5 83c.1 9.5 5 20.9 17.5 20.9 9.5 0 14.6-5.6 16.7-13.6h6.5c-2.8 12.1-9.8 19.1-23.2 19.1-16.9 0-24-13-24-28.1 0-14 7.1-28.1 24-28.1 17.1 0 23.9 14.9 23.4 29.9h-40.9zm34.4-5.4c-.3-9.8-6.4-19-16.9-19-10.6 0-16.5 9.3-17.5 19h34.4zM1258.8 54.7h6v12.5h.2c3.3-8.5 10.5-13.6 20.1-13.2v6.5c-11.7-.6-19.8 8-19.8 19.1v28.3h-6.5V54.7zM1295.8 83c.1 9.5 5 20.9 17.5 20.9 9.5 0 14.6-5.6 16.7-13.6h6.5c-2.8 12.1-9.8 19.1-23.2 19.1-16.9 0-24-13-24-28.1 0-14 7.1-28.1 24-28.1 17.1 0 23.9 14.9 23.4 29.9h-40.9zm34.4-5.4c-.3-9.8-6.4-19-16.9-19-10.6 0-16.5 9.3-17.5 19h34.4zM1394.8 107.9h-6V97.8h-.2c-2.8 6.9-11.2 11.6-18.9 11.6-16.2 0-23.9-13.1-23.9-28.1s7.7-28.1 23.9-28.1c7.9 0 15.7 4 18.4 11.6h.2V34.3h6.5v73.6zm-25.1-3.9c13.8 0 18.6-11.6 18.6-22.7s-4.8-22.7-18.6-22.7c-12.4 0-17.4 11.6-17.4 22.7s5 22.7 17.4 22.7zM1441 34.3h6.5v30.5h.2c2.8-7.6 10.5-11.6 18.4-11.6 16.2 0 23.9 13.1 23.9 28.1s-7.7 28.1-23.9 28.1c-8.5 0-16-4.4-18.9-11.6h-.2v10.1h-6V34.3zm25.1 24.3c-13.8 0-18.6 11.6-18.6 22.7s4.8 22.7 18.6 22.7c12.4 0 17.4-11.6 17.4-22.7s-5-22.7-17.4-22.7zM1496.7 54.7h6.9l17.5 45.3 16.4-45.3h6.5l-23.1 61.3c-3.7 9-5.9 11.5-14 11.5-2.6-.1-3.9-.1-4.9-.5v-5.5c1.5.3 3 .5 4.4.5 5.8 0 7.1-3.4 9.3-8.3l2.3-6.1-21.3-52.9z"/></g></g><g fill="#8DC63F"><path d="M5.1 87.9c5.9 3.6 17.1 7.4 26.4 7.4 11.4 0 16.5-4.6 16.5-11.4 0-7-4.2-10.6-16.9-15-20-7-28.5-17.9-28.3-30 0-18.1 15-32.3 38.8-32.3 11.4 0 21.3 3 27.2 6.1l-5.1 18.4C59.3 28.6 51 25.2 42 25.2c-9.3 0-14.3 4.4-14.3 10.8 0 6.5 4.9 9.7 17.9 14.3C64.1 57.1 72.8 66.6 73 81.8c0 18.6-14.6 32.1-41.8 32.1-12.4 0-23.6-3-31.2-7.2l5.1-18.8zM84.9 56.1c0-10.2-.3-18.9-.7-26.1h21.4l1.2 11h.5c3.5-5.2 10.7-12.9 24.7-12.9 10.5 0 18.9 5.3 22.4 13.9h.3c3-4.2 6.7-7.5 10.5-9.9 4.5-2.7 9.5-4 15.5-4 15.7 0 27.6 11 27.6 35.4v48.1h-24.7V67.3c0-11.9-3.8-18.7-12-18.7-5.8 0-10 4-11.7 8.9-.7 1.8-1 4.5-1 6.5v47.8h-24.7V65.9c0-10.4-3.7-17.4-11.7-17.4-6.5 0-10.4 5-11.9 9.2-.8 2-1 4.3-1 6.4v47.6H84.9V56.1zM271.9 111.7l-1.5-8.2h-.5c-5.3 6.5-13.7 10-23.4 10-16.5 0-26.4-12-26.4-25.1 0-21.2 19.1-31.4 48-31.2V56c0-4.3-2.3-10.5-14.9-10.5-8.4 0-17.2 2.8-22.6 6.2l-4.7-16.4c5.7-3.2 16.9-7.2 31.8-7.2 27.2 0 35.9 16 35.9 35.3v28.4c0 7.9.3 15.4 1.2 19.9h-22.9zm-3-38.6c-13.4-.2-23.7 3-23.7 12.9 0 6.5 4.3 9.7 10 9.7 6.3 0 11.5-4.2 13.2-9.4.3-1.3.5-2.8.5-4.3v-8.9zM307.5 56.9c0-12-.3-19.9-.7-26.9h21.9l.8 15h.7c4.2-11.9 14.2-16.9 22.1-16.9 2.3 0 3.5 0 5.3.3v23.9c-1.8-.3-4-.7-6.9-.7-9.4 0-15.7 5-17.4 12.9-.3 1.7-.5 3.7-.5 5.7v41.4h-25.4V56.9zM401.1 6.6V30h18.2v18.7h-18.2v29.6c0 9.9 2.3 14.4 10 14.4 3.2 0 5.7-.3 7.5-.7l.2 19.2c-3.3 1.3-9.4 2.2-16.5 2.2-8.2 0-15-2.8-19.1-7-4.7-4.8-7-12.7-7-24.2V48.7h-10.9V30h10.9V12.3l24.9-5.7zM434.4 8.6c7.6-1.2 18.8-2.2 31.3-2.2 15.4 0 26.2 2.3 33.6 8.2 6.2 4.9 9.6 12.2 9.6 21.7 0 13.3-9.4 22.4-18.3 25.6v.5c7.2 2.9 11.3 9.9 13.9 19.4 3.2 11.7 6.5 25.3 8.5 29.3h-24.1c-1.7-2.9-4.2-11.4-7.2-24.2-2.8-13-7.2-16.5-16.8-16.7h-7.1v40.9h-23.3V8.6zm23.3 44.7h9.3c11.7 0 18.7-5.9 18.7-15 0-9.6-6.5-14.3-17.3-14.5-5.7 0-8.9.5-10.6.8v28.7zM542.5 78.3c.8 10.5 11.2 15.5 23.1 15.5 8.7 0 15.7-1.2 22.6-3.3l3.3 17.2c-8.4 3.3-18.5 5-29.6 5-27.7 0-43.6-16-43.6-41.6 0-20.7 12.9-43.6 41.3-43.6 26.4 0 36.4 20.6 36.4 40.8 0 4.3-.5 8.2-.8 10h-52.7zM572.4 61c0-6.2-2.7-16.5-14.4-16.5-10.7 0-15 9.7-15.7 16.5h30.1zM669.3 109.1c-4.5 2-13 3.7-22.7 3.7-26.4 0-43.3-16-43.3-41.8 0-23.9 16.4-43.4 46.8-43.4 6.7 0 14 1.2 19.4 3.2l-4 18.9c-3-1.3-7.5-2.5-14.2-2.5-13.4 0-22.1 9.5-21.9 22.9 0 15 10 22.9 22.4 22.9 6 0 10.7-1 14.5-2.5l3 18.6zM697.9 78.3c.8 10.5 11.2 15.5 23.1 15.5 8.7 0 15.7-1.2 22.6-3.3l3.3 17.2c-8.4 3.3-18.5 5-29.6 5-27.7 0-43.6-16-43.6-41.6 0-20.7 12.9-43.6 41.3-43.6 26.4 0 36.4 20.6 36.4 40.8 0 4.3-.5 8.2-.8 10h-52.7zM727.8 61c0-6.2-2.7-16.5-14.4-16.5-10.7 0-15 9.7-15.7 16.5h30.1zM787.5 12.2c0 6.6-5.1 12-13 12-7.6 0-12.7-5.4-12.5-12-.2-7 4.9-12.2 12.7-12.2 7.7 0 12.6 5.2 12.8 12.2zm-24.8 98.9V33.7h24.1v77.4h-24.1zM800.4 58.3c0-10.4-.3-19.3-.6-26.6h21.4l1.1 11h.3c5.8-8.4 14.9-12.8 26.5-12.8 17.4 0 32.9 15.1 32.9 40.4 0 28.9-18.3 42.5-36 42.5-9.6 0-17-3.9-20.6-9.1h-.3v39.4h-24.7V58.3zM825.1 77c0 1.9.2 3.7.5 5.2 1.6 6.7 7.3 11.7 14.4 11.7 10.7 0 17-8.9 17-22.4 0-12.7-5.7-22.2-16.7-22.2-7 0-13.1 5.2-14.8 12.5-.3 1.3-.5 2.9-.5 4.4V77zM923.1 6v23.4h18.2v18.7h-18.2v29.6c0 9.9 2.3 14.4 10 14.4 3.2 0 5.7-.3 7.5-.7l.2 19.2c-3.3 1.3-9.4 2.2-16.5 2.2-8.2 0-15-2.8-19.1-7-4.7-4.8-7-12.7-7-24.2V48.1h-10.9V29.4h10.9V11.7L923.1 6zM938.9 10.8h-4.2V9.3h10.1v1.5h-4.2V23h-1.8V10.8zM957.9 17c-.1-1.9-.2-4.2-.2-5.9h-.1c-.5 1.6-1 3.3-1.7 5.2l-2.4 6.6h-1.3l-2.2-6.5c-.6-1.9-1.2-3.7-1.6-5.3 0 1.7-.1 4-.3 6l-.4 5.9H946l1-13.7h2.3l2.3 6.6c.6 1.7 1 3.2 1.4 4.6h.1c.3-1.4.8-2.9 1.4-4.6l2.4-6.6h2.3L960 23h-1.7l-.4-6z"/></g></svg>