<?xml version="1.0" encoding="utf-8"?>
<!-- Generator: Adobe Illustrator 19.1.0, SVG Export Plug-In . SVG Version: 6.00 Build 0)  -->
<svg version="1.1" id="Layer_1" xmlns="http://www.w3.org/2000/svg" xmlns:xlink="http://www.w3.org/1999/xlink" x="0px" y="0px"
	 viewBox="0 0 960 232.3" enable-background="new 0 0 960 232.3" xml:space="preserve">
<g>
	<g>
		<g>
			<path fill="#949CA1" d="M588.6,214.8h-9.2V194c0-0.5-0.1-1.1-0.2-1.9c-0.1-0.8-0.4-1.5-0.9-2.3c-0.5-0.7-1.1-1.4-2-1.9
				c-0.9-0.5-2.1-0.8-3.6-0.8c-2,0-3.7,0.6-5,1.9s-1.9,2.9-1.9,4.9v20.9h-9.2V194c0-0.5-0.1-1.1-0.2-1.9c-0.1-0.8-0.4-1.5-0.9-2.3
				c-0.4-0.7-1.1-1.4-2-1.9c-0.9-0.5-2.1-0.8-3.6-0.8c-2.1,0-3.8,0.6-5,1.9c-1.3,1.2-1.9,2.9-1.9,4.9v20.9h-9.2v-20.7
				c0-2.3,0.4-4.4,1.1-6.3c0.8-1.9,1.8-3.6,3.2-5.1c1.4-1.4,3.1-2.6,5.1-3.4c2-0.8,4.2-1.2,6.7-1.2c2.5,0,4.6,0.5,6.6,1.4
				c1.9,0.9,3.5,2.1,4.8,3.7c1.3-1.6,3-2.8,4.9-3.7c1.9-0.9,4.1-1.4,6.4-1.4c2.5,0,4.7,0.4,6.7,1.2c2,0.8,3.6,1.9,5,3.3
				s2.4,3.1,3.1,5c0.7,1.9,1.1,4.1,1.1,6.4V214.8L588.6,214.8z"/>
			<path fill-rule="evenodd" clip-rule="evenodd" fill="#949CA1" d="M610.4,207.3c1.2,0,2.3-0.2,3.4-0.7c1.1-0.5,2-1.2,2.8-2.1
				c0.8-0.9,1.5-2,1.9-3.2c0.5-1.2,0.7-2.6,0.7-4.2c0-1.5-0.2-2.9-0.7-4.2c-0.5-1.3-1.1-2.4-1.9-3.3c-0.8-0.9-1.8-1.6-2.8-2.1
				c-1.1-0.5-2.2-0.8-3.4-0.8c-1.2,0-2.4,0.3-3.4,0.8c-1.1,0.5-2,1.2-2.8,2.1c-0.8,0.9-1.4,2-1.9,3.3c-0.5,1.3-0.7,2.7-0.7,4.2
				c0,1.5,0.2,2.9,0.7,4.2c0.5,1.2,1.1,2.3,1.9,3.2c0.8,0.9,1.7,1.6,2.8,2.1C608,207,609.2,207.3,610.4,207.3L610.4,207.3z
				 M610.3,178.2c2.5,0,4.8,0.5,7,1.4c2.2,0.9,4.1,2.3,5.7,4c1.6,1.7,2.9,3.7,3.9,6c0.9,2.3,1.4,4.8,1.4,7.5c0,2.7-0.5,5.2-1.4,7.4
				c-0.9,2.3-2.2,4.2-3.9,5.9c-1.6,1.7-3.5,3-5.7,3.9c-2.2,0.9-4.5,1.4-7,1.4c-2.5,0-4.8-0.5-7-1.4c-2.2-0.9-4.1-2.3-5.7-3.9
				c-1.6-1.7-2.9-3.6-3.8-5.9c-0.9-2.3-1.4-4.7-1.4-7.4c0-2.7,0.5-5.2,1.4-7.5c0.9-2.3,2.2-4.3,3.8-6c1.6-1.7,3.5-3,5.7-4
				C605.5,178.7,607.8,178.2,610.3,178.2L610.3,178.2z"/>
			<path fill-rule="evenodd" clip-rule="evenodd" fill="#949CA1" d="M660.4,197.1c0-1.5-0.2-2.8-0.7-4.1c-0.5-1.2-1.1-2.3-2-3.3
				c-0.8-0.9-1.8-1.6-2.9-2.1c-1.1-0.5-2.3-0.8-3.6-0.8s-2.4,0.3-3.6,0.8c-1.1,0.5-2.1,1.3-2.9,2.2c-0.8,0.9-1.5,2-2,3.3
				c-0.5,1.2-0.7,2.6-0.7,4c0,1.4,0.2,2.7,0.7,3.9c0.5,1.2,1.1,2.3,2,3.2c0.8,0.9,1.8,1.6,2.9,2.1c1.1,0.5,2.3,0.8,3.6,0.8
				s2.4-0.3,3.6-0.8c1.1-0.5,2.1-1.2,2.9-2.1c0.8-0.9,1.5-2,2-3.2C660.2,199.8,660.4,198.5,660.4,197.1L660.4,197.1z M669.6,197
				c0,2.6-0.5,5-1.4,7.3c-0.9,2.3-2.2,4.2-3.8,5.9c-1.6,1.7-3.5,3-5.8,4c-2.2,1-4.7,1.5-7.4,1.5c-2.7,0-5.2-0.5-7.5-1.5
				c-2.2-1-4.2-2.3-5.8-4c-1.6-1.7-2.9-3.7-3.8-5.9c-0.9-2.3-1.4-4.7-1.4-7.3v-33.8h9.2l0.1,19.2c1.3-1.4,2.9-2.5,4.6-3.2
				c1.8-0.7,3.7-1,5.8-1c2.4,0,4.6,0.5,6.7,1.5c2.1,1,3.9,2.3,5.4,4c1.5,1.7,2.7,3.7,3.6,6C669.1,192,669.6,194.4,669.6,197
				L669.6,197z"/>
			<polygon fill="#949CA1" points="684.1,214.8 674.9,214.8 674.9,179.1 684.1,179.1 684.1,214.8 			"/>
			<polygon fill="#949CA1" points="713.1,214.8 703.2,214.8 689.7,179.1 699.3,179.1 708.1,205.7 717.1,179.1 726.5,179.1 
				713.1,214.8 			"/>
			<polygon fill="#949CA1" points="741.2,214.8 732,214.8 732,179.1 741.2,179.1 741.2,214.8 			"/>
			<path fill="#949CA1" d="M763.4,214.8c-2.6,0.3-4.9,0.1-6.9-0.5c-2-0.6-3.7-1.6-5-2.9c-1.3-1.3-2.4-3-3.1-5s-1-4.2-1-6.6V170h9.2
				v9.1h6.4v8.1h-6.4v12.6c0,2.5,0.6,4.3,1.7,5.3c1.1,1,2.9,1.5,5.2,1.3V214.8L763.4,214.8z"/>
			<path fill="#949CA1" d="M800,216.3c0,2.4-0.4,4.6-1.1,6.6c-0.8,2-1.8,3.7-3.2,5.1c-1.4,1.4-3.1,2.5-5,3.3
				c-1.9,0.8-4.1,1.1-6.5,1.1c-1.9,0-3.8-0.3-5.5-0.9c-1.8-0.6-3.3-1.5-4.7-2.6c-1.4-1.1-2.5-2.4-3.4-4c-0.9-1.5-1.5-3.2-1.9-5.1
				h9.5c0.3,1.3,1,2.3,2,3c1.1,0.6,2.4,1,4,1c1.2,0,2.3-0.2,3.2-0.6c0.9-0.4,1.5-0.9,2.1-1.6c0.5-0.7,0.9-1.4,1.1-2.2
				c0.2-0.8,0.3-1.6,0.3-2.5v-4.2c-1.1,0.9-2.3,1.6-3.7,2.1c-1.4,0.5-2.9,0.8-4.5,0.8c-2.2,0-4.2-0.4-6-1.1
				c-1.8-0.8-3.3-1.8-4.6-3.2c-1.3-1.4-2.3-3-2.9-4.9c-0.7-1.9-1-4.1-1-6.4v-20.9h9.2V200c0,0.5,0.1,1.2,0.2,1.9
				c0.1,0.8,0.4,1.6,0.9,2.3c0.5,0.8,1.1,1.4,2,1.9c0.9,0.5,2.1,0.8,3.5,0.8c2.1,0,3.8-0.7,5-2c1.3-1.3,1.9-3,1.9-5v-20.9h9.2V216.3
				L800,216.3z"/>
			<path fill="#949CA1" d="M687.5,168.7c0-2.5,2-4.5,4.5-4.5s4.5,2,4.5,4.5s-2,4.5-4.5,4.5S687.5,171.2,687.5,168.7L687.5,168.7z"/>
			<path fill="#949CA1" d="M675,168.7c0-2.5,2-4.5,4.5-4.5c2.5,0,4.5,2,4.5,4.5s-2,4.5-4.5,4.5C677,173.2,675,171.2,675,168.7
				L675,168.7z"/>
			<path fill="#949CA1" d="M719,168.7c0-2.5,2-4.5,4.5-4.5c2.5,0,4.5,2,4.5,4.5s-2,4.5-4.5,4.5C721,173.2,719,171.2,719,168.7
				L719,168.7z"/>
			<path fill="#949CA1" d="M732.2,168.7c0-2.5,2-4.5,4.5-4.5c2.5,0,4.5,2,4.5,4.5s-2,4.5-4.5,4.5
				C734.2,173.2,732.2,171.2,732.2,168.7L732.2,168.7z"/>
		</g>
		<g>
			<path fill="#949CA1" stroke="#949CA1" stroke-miterlimit="10" d="M160,180.8h3.9v6.5l0,0c1.9-4.7,6.9-7.5,12.4-7.5
				c10.5,0,15.5,8.5,15.5,18.2s-5,18.2-15.5,18.2c-5.1,0-10.1-2.6-11.9-7.5h-0.1v19.3H160V180.8z M176.3,183.3
				c-9.3,0-12.1,6.9-12.1,14.7c0,7.1,3.1,14.7,12.1,14.7c8,0,11.3-7.5,11.3-14.7C187.5,190.9,184.2,183.3,176.3,183.3z"/>
			<path fill="#949CA1" stroke="#949CA1" stroke-miterlimit="10" d="M230.7,198c0,9.9-5.7,18.2-16.3,18.2
				c-10.5,0-16.3-8.3-16.3-18.2s5.7-18.2,16.3-18.2C225,179.8,230.7,188.1,230.7,198z M202.4,198c0,7.3,4,14.7,12.1,14.7
				c8.1,0,12.1-7.3,12.1-14.7c0-7.3-4-14.7-12.1-14.7C206.4,183.3,202.4,190.7,202.4,198z"/>
			<path fill="#949CA1" stroke="#949CA1" stroke-miterlimit="10" d="M235.2,180.8h4.5l8.8,29.4h0.1l8.4-29.4h4.7l8.4,29.4h0.1
				l8.8-29.4h4.5l-11.1,34.4h-4.6l-8.5-28.9h-0.1l-8.4,28.9h-4.6L235.2,180.8z"/>
			<path fill="#949CA1" stroke="#949CA1" stroke-miterlimit="10" d="M292.2,199.1c0.1,6.1,3.3,13.5,11.3,13.5
				c6.1,0,9.5-3.6,10.8-8.8h4.2c-1.8,7.8-6.3,12.3-15,12.3c-10.9,0-15.5-8.4-15.5-18.2c0-9.1,4.6-18.2,15.5-18.2
				c11.1,0,15.5,9.7,15.1,19.3H292.2z M314.4,195.6c-0.2-6.3-4.1-12.3-10.9-12.3c-6.9,0-10.7,6-11.3,12.3H314.4z"/>
			<path fill="#949CA1" stroke="#949CA1" stroke-miterlimit="10" d="M326,180.8h3.9v8.1h0.1c2.1-5.5,6.8-8.8,13-8.5v4.2
				c-7.6-0.4-12.8,5.2-12.8,12.3v18.3H326V180.8z"/>
			<path fill="#949CA1" stroke="#949CA1" stroke-miterlimit="10" d="M349.9,199.1c0.1,6.1,3.3,13.5,11.3,13.5
				c6.1,0,9.5-3.6,10.8-8.8h4.2c-1.8,7.8-6.3,12.3-15,12.3c-10.9,0-15.5-8.4-15.5-18.2c0-9.1,4.6-18.2,15.5-18.2
				c11.1,0,15.5,9.7,15.1,19.3H349.9z M372.2,195.6c-0.2-6.3-4.1-12.3-10.9-12.3c-6.9,0-10.7,6-11.3,12.3H372.2z"/>
			<path fill="#949CA1" stroke="#949CA1" stroke-miterlimit="10" d="M414,215.2h-3.9v-6.5H410c-1.8,4.5-7.3,7.5-12.3,7.5
				c-10.5,0-15.5-8.5-15.5-18.2s5-18.2,15.5-18.2c5.1,0,10.1,2.6,11.9,7.5h0.1v-19.7h4.2V215.2z M397.7,212.7
				c8.9,0,12.1-7.5,12.1-14.7c0-7.1-3.1-14.7-12.1-14.7c-8,0-11.3,7.5-11.3,14.7C386.4,205.1,389.7,212.7,397.7,212.7z"/>
			<path fill="#949CA1" stroke="#949CA1" stroke-miterlimit="10" d="M443.8,167.6h4.2v19.7h0.1c1.8-4.9,6.8-7.5,11.9-7.5
				c10.5,0,15.5,8.5,15.5,18.2s-5,18.2-15.5,18.2c-5.5,0-10.3-2.9-12.3-7.5h-0.1v6.5h-3.9V167.6z M460.1,183.3
				c-8.9,0-12.1,7.5-12.1,14.7c0,7.1,3.1,14.7,12.1,14.7c8,0,11.3-7.5,11.3-14.7C471.3,190.9,468.1,183.3,460.1,183.3z"/>
			<path fill="#949CA1" stroke="#949CA1" stroke-miterlimit="10" d="M479.9,180.8h4.5l11.3,29.3l10.6-29.3h4.2l-14.9,39.6
				c-2.4,5.8-3.8,7.5-9.1,7.5c-1.7-0.1-2.5-0.1-3.2-0.3v-3.5c1,0.2,1.9,0.3,2.9,0.3c3.7,0,4.6-2.2,6-5.4l1.5-3.9L479.9,180.8z"/>
		</g>
	</g>
	<g>
		<path fill="#8DC63F" d="M5.1,87.9c5.9,3.6,17.1,7.4,26.4,7.4c11.4,0,16.5-4.6,16.5-11.4c0-7-4.2-10.6-16.9-15
			c-20-7-28.5-17.9-28.3-30c0-18.1,15-32.3,38.8-32.3c11.4,0,21.3,3,27.2,6.1l-5.1,18.4c-4.4-2.5-12.7-5.9-21.7-5.9
			c-9.3,0-14.3,4.4-14.3,10.8c0,6.5,4.9,9.7,17.9,14.3C64.1,57.1,72.8,66.6,73,81.8c0,18.6-14.6,32.1-41.8,32.1
			c-12.4,0-23.6-3-31.2-7.2L5.1,87.9z"/>
		<path fill="#8DC63F" d="M84.9,56.1c0-10.2-0.3-18.9-0.7-26.1h21.4l1.2,11h0.5c3.5-5.2,10.7-12.9,24.7-12.9
			c10.5,0,18.9,5.3,22.4,13.9h0.3c3-4.2,6.7-7.5,10.5-9.9c4.5-2.7,9.5-4,15.5-4c15.7,0,27.6,11,27.6,35.4v48.1h-24.7V67.3
			c0-11.9-3.8-18.7-12-18.7c-5.8,0-10,4-11.7,8.9c-0.7,1.8-1,4.5-1,6.5v47.8h-24.7V65.9c0-10.4-3.7-17.4-11.7-17.4
			c-6.5,0-10.4,5-11.9,9.2c-0.8,2-1,4.3-1,6.4v47.6H84.9V56.1z"/>
		<path fill="#8DC63F" d="M271.9,111.7l-1.5-8.2h-0.5c-5.3,6.5-13.7,10-23.4,10c-16.5,0-26.4-12-26.4-25.1c0-21.2,19.1-31.4,48-31.2
			v-1.2c0-4.3-2.3-10.5-14.9-10.5c-8.4,0-17.2,2.8-22.6,6.2l-4.7-16.4c5.7-3.2,16.9-7.2,31.8-7.2c27.2,0,35.9,16,35.9,35.3v28.4
			c0,7.9,0.3,15.4,1.2,19.9H271.9z M268.9,73.1c-13.4-0.2-23.7,3-23.7,12.9c0,6.5,4.3,9.7,10,9.7c6.3,0,11.5-4.2,13.2-9.4
			c0.3-1.3,0.5-2.8,0.5-4.3V73.1z"/>
		<path fill="#8DC63F" d="M307.5,56.9c0-12-0.3-19.9-0.7-26.9h21.9l0.8,15h0.7c4.2-11.9,14.2-16.9,22.1-16.9c2.3,0,3.5,0,5.3,0.3
			v23.9c-1.8-0.3-4-0.7-6.9-0.7c-9.4,0-15.7,5-17.4,12.9c-0.3,1.7-0.5,3.7-0.5,5.7v41.4h-25.4V56.9z"/>
		<path fill="#8DC63F" d="M401.1,6.6V30h18.2v18.7h-18.2v29.6c0,9.9,2.3,14.4,10,14.4c3.2,0,5.7-0.3,7.5-0.7l0.2,19.2
			c-3.3,1.3-9.4,2.2-16.5,2.2c-8.2,0-15-2.8-19.1-7c-4.7-4.8-7-12.7-7-24.2V48.7h-10.9V30h10.9V12.3L401.1,6.6z"/>
		<path fill="#8DC63F" d="M434.4,8.6c7.6-1.2,18.8-2.2,31.3-2.2c15.4,0,26.2,2.3,33.6,8.2c6.2,4.9,9.6,12.2,9.6,21.7
			c0,13.3-9.4,22.4-18.3,25.6v0.5c7.2,2.9,11.3,9.9,13.9,19.4c3.2,11.7,6.5,25.3,8.5,29.3h-24.1c-1.7-2.9-4.2-11.4-7.2-24.2
			c-2.8-13-7.2-16.5-16.8-16.7h-7.1v40.9h-23.3V8.6z M457.7,53.3h9.3c11.7,0,18.7-5.9,18.7-15c0-9.6-6.5-14.3-17.3-14.5
			c-5.7,0-8.9,0.5-10.6,0.8V53.3z"/>
		<path fill="#8DC63F" d="M542.5,78.3c0.8,10.5,11.2,15.5,23.1,15.5c8.7,0,15.7-1.2,22.6-3.3l3.3,17.2c-8.4,3.3-18.5,5-29.6,5
			c-27.7,0-43.6-16-43.6-41.6c0-20.7,12.9-43.6,41.3-43.6c26.4,0,36.4,20.6,36.4,40.8c0,4.3-0.5,8.2-0.8,10H542.5z M572.4,61
			c0-6.2-2.7-16.5-14.4-16.5c-10.7,0-15,9.7-15.7,16.5H572.4z"/>
		<path fill="#8DC63F" d="M669.3,109.1c-4.5,2-13,3.7-22.7,3.7c-26.4,0-43.3-16-43.3-41.8c0-23.9,16.4-43.4,46.8-43.4
			c6.7,0,14,1.2,19.4,3.2l-4,18.9c-3-1.3-7.5-2.5-14.2-2.5c-13.4,0-22.1,9.5-21.9,22.9c0,15,10,22.9,22.4,22.9c6,0,10.7-1,14.5-2.5
			L669.3,109.1z"/>
		<path fill="#8DC63F" d="M697.9,78.3c0.8,10.5,11.2,15.5,23.1,15.5c8.7,0,15.7-1.2,22.6-3.3l3.3,17.2c-8.4,3.3-18.5,5-29.6,5
			c-27.7,0-43.6-16-43.6-41.6c0-20.7,12.9-43.6,41.3-43.6c26.4,0,36.4,20.6,36.4,40.8c0,4.3-0.5,8.2-0.8,10H697.9z M727.8,61
			c0-6.2-2.7-16.5-14.4-16.5c-10.7,0-15,9.7-15.7,16.5H727.8z"/>
		<path fill="#8DC63F" d="M787.5,12.2c0,6.6-5.1,12-13,12c-7.6,0-12.7-5.4-12.5-12c-0.2-7,4.9-12.2,12.7-12.2
			C782.4,0,787.3,5.2,787.5,12.2z M762.7,111.1V33.7h24.1v77.4H762.7z"/>
		<path fill="#8DC63F" d="M800.4,58.3c0-10.4-0.3-19.3-0.6-26.6h21.4l1.1,11h0.3c5.8-8.4,14.9-12.8,26.5-12.8
			c17.4,0,32.9,15.1,32.9,40.4c0,28.9-18.3,42.5-36,42.5c-9.6,0-17-3.9-20.6-9.1h-0.3v39.4h-24.7V58.3z M825.1,77
			c0,1.9,0.2,3.7,0.5,5.2c1.6,6.7,7.3,11.7,14.4,11.7c10.7,0,17-8.9,17-22.4c0-12.7-5.7-22.2-16.7-22.2c-7,0-13.1,5.2-14.8,12.5
			c-0.3,1.3-0.5,2.9-0.5,4.4V77z"/>
		<path fill="#8DC63F" d="M923.1,6v23.4h18.2v18.7h-18.2v29.6c0,9.9,2.3,14.4,10,14.4c3.2,0,5.7-0.3,7.5-0.7l0.2,19.2
			c-3.3,1.3-9.4,2.2-16.5,2.2c-8.2,0-15-2.8-19.1-7c-4.7-4.8-7-12.7-7-24.2V48.1h-10.9V29.4h10.9V11.7L923.1,6z"/>
		<path fill="#8DC63F" d="M938.9,10.8h-4.2V9.3h10.1v1.5h-4.2V23h-1.8V10.8z"/>
		<path fill="#8DC63F" d="M957.9,17c-0.1-1.9-0.2-4.2-0.2-5.9h-0.1c-0.5,1.6-1,3.3-1.7,5.2l-2.4,6.6h-1.3l-2.2-6.5
			c-0.6-1.9-1.2-3.7-1.6-5.3h0c0,1.7-0.1,4-0.3,6l-0.4,5.9H946l1-13.7h2.3l2.3,6.6c0.6,1.7,1,3.2,1.4,4.6h0.1
			c0.3-1.4,0.8-2.9,1.4-4.6l2.4-6.6h2.3L960,23h-1.7L957.9,17z"/>
	</g>
</g>
</svg>
