<?xml version="1.0" encoding="utf-8"?>
<!-- Generator: Adobe Illustrator 19.1.0, SVG Export Plug-In . SVG Version: 6.00 Build 0)  -->
<svg version="1.1" id="Layer_1" xmlns="http://www.w3.org/2000/svg" xmlns:xlink="http://www.w3.org/1999/xlink" x="0px" y="0px"
	 viewBox="0 0 1991.6 143.2" enable-background="new 0 0 1991.6 143.2" xml:space="preserve">
<g>
	<g>
		<path fill="#949CA1" d="M1664.7,107.3h-14.2V75c0-0.8-0.1-1.8-0.3-2.9c-0.2-1.2-0.7-2.3-1.4-3.5c-0.7-1.1-1.8-2.1-3.1-2.9
			c-1.4-0.8-3.2-1.2-5.6-1.2c-3.1,0-5.7,1-7.7,2.9c-2,1.9-3,4.5-3,7.6v32.3h-14.2V75c0-0.8-0.1-1.8-0.3-2.9
			c-0.2-1.2-0.7-2.3-1.3-3.5c-0.7-1.1-1.7-2.1-3.1-2.9c-1.4-0.8-3.2-1.2-5.6-1.2c-3.2,0-5.8,1-7.8,2.9c-2,1.9-2.9,4.5-2.9,7.6v32.3
			h-14.2V75.4c0-3.5,0.6-6.8,1.8-9.8c1.2-3,2.8-5.6,5-7.8c2.1-2.2,4.8-3.9,7.8-5.2c3.1-1.3,6.5-1.9,10.3-1.9c3.8,0,7.2,0.7,10.1,2.1
			c3,1.4,5.4,3.3,7.5,5.7c2.1-2.4,4.6-4.3,7.6-5.7c3-1.4,6.3-2.1,10-2.1c3.9,0,7.3,0.6,10.3,1.8c3,1.2,5.6,2.9,7.7,5.1
			c2.1,2.2,3.7,4.8,4.8,7.8c1.1,3,1.7,6.3,1.7,10V107.3L1664.7,107.3z"/>
		<path fill-rule="evenodd" clip-rule="evenodd" fill="#949CA1" d="M1698.4,95.6c1.9,0,3.6-0.4,5.3-1.1c1.7-0.8,3.1-1.8,4.4-3.2
			c1.3-1.4,2.2-3.1,3-5c0.7-1.9,1.1-4.1,1.1-6.4c0-2.4-0.4-4.5-1.1-6.5c-0.7-2-1.7-3.7-3-5.1c-1.3-1.4-2.7-2.5-4.4-3.3
			c-1.7-0.8-3.4-1.2-5.3-1.2c-1.9,0-3.6,0.4-5.3,1.2c-1.7,0.8-3.1,1.9-4.4,3.3c-1.2,1.4-2.2,3.1-2.9,5.1c-0.7,2-1.1,4.2-1.1,6.5
			c0,2.4,0.4,4.5,1.1,6.4c0.7,1.9,1.7,3.6,2.9,5c1.2,1.4,2.7,2.5,4.4,3.2C1694.8,95.2,1696.6,95.6,1698.4,95.6L1698.4,95.6z
			 M1698.4,50.7c3.9,0,7.5,0.7,10.8,2.2c3.4,1.5,6.3,3.5,8.8,6.1c2.5,2.6,4.5,5.7,6,9.2c1.5,3.5,2.2,7.4,2.2,11.5
			c0,4.1-0.7,8-2.2,11.5c-1.5,3.5-3.5,6.5-6,9.1c-2.5,2.6-5.5,4.6-8.8,6.1c-3.4,1.5-7,2.2-10.8,2.2c-3.9,0-7.5-0.7-10.8-2.2
			c-3.4-1.5-6.3-3.5-8.8-6.1c-2.5-2.6-4.5-5.6-6-9.1c-1.5-3.5-2.2-7.3-2.2-11.5c0-4.1,0.7-8,2.2-11.5c1.5-3.5,3.4-6.6,6-9.2
			c2.5-2.6,5.4-4.6,8.8-6.1C1690.9,51.4,1694.5,50.7,1698.4,50.7L1698.4,50.7z"/>
		<path fill-rule="evenodd" clip-rule="evenodd" fill="#949CA1" d="M1775.8,79.9c0-2.3-0.4-4.4-1.1-6.3c-0.8-1.9-1.8-3.6-3.1-5
			c-1.3-1.4-2.8-2.5-4.5-3.3c-1.7-0.8-3.6-1.2-5.5-1.2c-1.9,0-3.8,0.4-5.5,1.2c-1.7,0.8-3.2,1.9-4.5,3.4c-1.3,1.4-2.3,3.1-3.1,5
			c-0.8,1.9-1.1,4-1.1,6.2c0,2.1,0.4,4.2,1.1,6.1c0.8,1.9,1.8,3.5,3.1,4.9c1.3,1.4,2.8,2.5,4.5,3.3c1.7,0.8,3.6,1.2,5.5,1.2
			c1.9,0,3.8-0.4,5.5-1.2c1.7-0.8,3.2-1.9,4.5-3.3c1.3-1.4,2.3-3,3.1-4.9C1775.4,84.1,1775.8,82.1,1775.8,79.9L1775.8,79.9z
			 M1790,79.7c0,4-0.7,7.8-2.1,11.3c-1.4,3.5-3.3,6.6-5.8,9.2c-2.5,2.6-5.5,4.7-9,6.2c-3.5,1.5-7.3,2.3-11.4,2.3
			c-4.2,0-8.1-0.8-11.5-2.3c-3.5-1.5-6.5-3.6-9-6.2c-2.5-2.6-4.4-5.7-5.8-9.2c-1.4-3.5-2.1-7.3-2.1-11.3V27.5h14.2l0.1,29.7
			c2.1-2.2,4.5-3.9,7.2-4.9c2.7-1,5.7-1.6,8.9-1.6c3.6,0,7.1,0.8,10.3,2.3c3.2,1.5,6,3.6,8.4,6.2c2.4,2.6,4.2,5.7,5.6,9.2
			C1789.3,72,1790,75.8,1790,79.7L1790,79.7z"/>
		<polygon fill="#949CA1" points="1812.4,107.3 1798.3,107.3 1798.3,52.1 1812.4,52.1 1812.4,107.3 		"/>
		<polygon fill="#949CA1" points="1857.2,107.3 1842,107.3 1821,52.1 1835.8,52.1 1849.6,93.3 1863.4,52.1 1878,52.1 1857.2,107.3 
					"/>
		<polygon fill="#949CA1" points="1900.7,107.3 1886.5,107.3 1886.5,52.1 1900.7,52.1 1900.7,107.3 		"/>
		<path fill="#949CA1" d="M1935.1,107.2c-4.1,0.4-7.6,0.2-10.7-0.8c-3.1-0.9-5.6-2.4-7.7-4.5c-2.1-2.1-3.6-4.6-4.7-7.7
			c-1.1-3-1.6-6.5-1.6-10.2V38h14.2v14h10v12.5h-10v19.5c0,3.9,0.9,6.6,2.6,8.1c1.8,1.6,4.4,2.3,8,2V107.2L1935.1,107.2z"/>
		<path fill="#949CA1" d="M1991.6,109.6c0,3.7-0.6,7.1-1.8,10.1c-1.2,3-2.8,5.6-5,7.8c-2.1,2.2-4.7,3.9-7.7,5
			c-3,1.2-6.4,1.8-10.1,1.8c-3,0-5.9-0.5-8.6-1.4c-2.7-0.9-5.1-2.3-7.2-4c-2.1-1.7-3.9-3.8-5.3-6.1c-1.4-2.4-2.4-5-2.9-7.8h14.7
			c0.4,2.1,1.5,3.6,3.2,4.6c1.7,1,3.7,1.5,6.2,1.5c1.9,0,3.6-0.3,4.9-0.9c1.3-0.6,2.4-1.4,3.2-2.5c0.8-1,1.4-2.2,1.8-3.4
			c0.4-1.3,0.5-2.5,0.5-3.8v-6.4c-1.6,1.4-3.5,2.5-5.7,3.3c-2.1,0.8-4.5,1.2-7,1.2c-3.4,0-6.4-0.6-9.2-1.8c-2.8-1.2-5.2-2.8-7.1-4.9
			c-2-2.1-3.5-4.6-4.6-7.6c-1.1-3-1.6-6.3-1.6-9.9V52.1h14.2v32.3c0,0.8,0.1,1.8,0.3,3c0.2,1.2,0.7,2.4,1.4,3.6
			c0.7,1.2,1.8,2.2,3.1,3c1.4,0.8,3.2,1.2,5.5,1.2c3.2,0,5.8-1,7.8-3.1c2-2,2.9-4.6,2.9-7.8V52.1h14.2V109.6L1991.6,109.6z"/>
		<path fill="#949CA1" d="M1817.7,36c0-3.8,3.1-7,7-7c3.8,0,7,3.1,7,7s-3.1,7-7,7C1820.8,42.9,1817.7,39.8,1817.7,36L1817.7,36z"/>
		<path fill="#949CA1" d="M1798.3,36c0-3.8,3.1-7,7-7c3.8,0,7,3.1,7,7s-3.1,7-7,7C1801.4,42.9,1798.3,39.8,1798.3,36L1798.3,36z"/>
		<path fill="#949CA1" d="M1866.4,36c0-3.8,3.1-7,7-7c3.8,0,7,3.1,7,7s-3.1,7-7,7C1869.5,42.9,1866.4,39.8,1866.4,36L1866.4,36z"/>
		<path fill="#949CA1" d="M1886.7,36c0-3.8,3.1-7,7-7c3.8,0,7,3.1,7,7s-3.1,7-7,7C1889.8,42.9,1886.7,39.8,1886.7,36L1886.7,36z"/>
	</g>
	<g>
		<path fill="#949CA1" stroke="#949CA1" stroke-miterlimit="10" d="M1002.2,54.7h6v10.1l0,0c3-7.2,10.6-11.6,19.2-11.6
			c16.2,0,23.9,13.1,23.9,28.1s-7.7,28.1-23.9,28.1c-7.9,0-15.7-4-18.4-11.6h-0.2v29.8h-6.5V54.7z M1027.3,58.6
			c-14.3,0-18.6,10.6-18.6,22.7c0,11,4.8,22.7,18.6,22.7c12.4,0,17.4-11.6,17.4-22.7S1039.7,58.6,1027.3,58.6z"/>
		<path fill="#949CA1" stroke="#949CA1" stroke-miterlimit="10" d="M1111.5,81.3c0,15.2-8.9,28.1-25.1,28.1s-25.1-12.9-25.1-28.1
			s8.9-28.1,25.1-28.1S1111.5,66,1111.5,81.3z M1067.7,81.3c0,11.3,6.2,22.7,18.6,22.7s18.6-11.3,18.6-22.7s-6.2-22.7-18.6-22.7
			S1067.7,70,1067.7,81.3z"/>
		<path fill="#949CA1" stroke="#949CA1" stroke-miterlimit="10" d="M1118.4,54.7h6.9l13.6,45.5h0.2l13-45.5h7.3l13,45.5h0.2
			l13.6-45.5h6.9l-17.1,53.1h-7.1l-13.1-44.7h-0.2l-13,44.7h-7.1L1118.4,54.7z"/>
		<path fill="#949CA1" stroke="#949CA1" stroke-miterlimit="10" d="M1206.5,83c0.1,9.5,5,20.9,17.5,20.9c9.5,0,14.6-5.6,16.7-13.6
			h6.5c-2.8,12.1-9.8,19.1-23.2,19.1c-16.9,0-24-13-24-28.1c0-14,7.1-28.1,24-28.1c17.1,0,23.9,14.9,23.4,29.9H1206.5z M1240.9,77.6
			c-0.3-9.8-6.4-19-16.9-19c-10.6,0-16.5,9.3-17.5,19H1240.9z"/>
		<path fill="#949CA1" stroke="#949CA1" stroke-miterlimit="10" d="M1258.8,54.7h6v12.5h0.2c3.3-8.5,10.5-13.6,20.1-13.2v6.5
			c-11.7-0.6-19.8,8-19.8,19.1v28.3h-6.5V54.7z"/>
		<path fill="#949CA1" stroke="#949CA1" stroke-miterlimit="10" d="M1295.8,83c0.1,9.5,5,20.9,17.5,20.9c9.5,0,14.6-5.6,16.7-13.6
			h6.5c-2.8,12.1-9.8,19.1-23.2,19.1c-16.9,0-24-13-24-28.1c0-14,7.1-28.1,24-28.1c17.1,0,23.9,14.9,23.4,29.9H1295.8z M1330.2,77.6
			c-0.3-9.8-6.4-19-16.9-19c-10.6,0-16.5,9.3-17.5,19H1330.2z"/>
		<path fill="#949CA1" stroke="#949CA1" stroke-miterlimit="10" d="M1394.8,107.9h-6V97.8h-0.2c-2.8,6.9-11.2,11.6-18.9,11.6
			c-16.2,0-23.9-13.1-23.9-28.1s7.7-28.1,23.9-28.1c7.9,0,15.7,4,18.4,11.6h0.2V34.3h6.5V107.9z M1369.7,104
			c13.8,0,18.6-11.6,18.6-22.7s-4.8-22.7-18.6-22.7c-12.4,0-17.4,11.6-17.4,22.7S1357.3,104,1369.7,104z"/>
		<path fill="#949CA1" stroke="#949CA1" stroke-miterlimit="10" d="M1441,34.3h6.5v30.5h0.2c2.8-7.6,10.5-11.6,18.4-11.6
			c16.2,0,23.9,13.1,23.9,28.1s-7.7,28.1-23.9,28.1c-8.5,0-16-4.4-18.9-11.6h-0.2v10.1h-6V34.3z M1466.1,58.6
			c-13.8,0-18.6,11.6-18.6,22.7s4.8,22.7,18.6,22.7c12.4,0,17.4-11.6,17.4-22.7S1478.5,58.6,1466.1,58.6z"/>
		<path fill="#949CA1" stroke="#949CA1" stroke-miterlimit="10" d="M1496.7,54.7h6.9l17.5,45.3l16.4-45.3h6.5l-23.1,61.3
			c-3.7,9-5.9,11.5-14,11.5c-2.6-0.1-3.9-0.1-4.9-0.5v-5.5c1.5,0.3,3,0.5,4.4,0.5c5.8,0,7.1-3.4,9.3-8.3l2.3-6.1L1496.7,54.7z"/>
	</g>
</g>
<g>
	<path fill="#8DC63F" d="M5.1,87.9c5.9,3.6,17.1,7.4,26.4,7.4c11.4,0,16.5-4.6,16.5-11.4c0-7-4.2-10.6-16.9-15
		c-20-7-28.5-17.9-28.3-30c0-18.1,15-32.3,38.8-32.3c11.4,0,21.3,3,27.2,6.1l-5.1,18.4c-4.4-2.5-12.7-5.9-21.7-5.9
		c-9.3,0-14.3,4.4-14.3,10.8c0,6.5,4.9,9.7,17.9,14.3C64.1,57.1,72.8,66.6,73,81.8c0,18.6-14.6,32.1-41.8,32.1
		c-12.4,0-23.6-3-31.2-7.2L5.1,87.9z"/>
	<path fill="#8DC63F" d="M84.9,56.1c0-10.2-0.3-18.9-0.7-26.1h21.4l1.2,11h0.5c3.5-5.2,10.7-12.9,24.7-12.9
		c10.5,0,18.9,5.3,22.4,13.9h0.3c3-4.2,6.7-7.5,10.5-9.9c4.5-2.7,9.5-4,15.5-4c15.7,0,27.6,11,27.6,35.4v48.1h-24.7V67.3
		c0-11.9-3.8-18.7-12-18.7c-5.8,0-10,4-11.7,8.9c-0.7,1.8-1,4.5-1,6.5v47.8h-24.7V65.9c0-10.4-3.7-17.4-11.7-17.4
		c-6.5,0-10.4,5-11.9,9.2c-0.8,2-1,4.3-1,6.4v47.6H84.9V56.1z"/>
	<path fill="#8DC63F" d="M271.9,111.7l-1.5-8.2h-0.5c-5.3,6.5-13.7,10-23.4,10c-16.5,0-26.4-12-26.4-25.1c0-21.2,19.1-31.4,48-31.2
		v-1.2c0-4.3-2.3-10.5-14.9-10.5c-8.4,0-17.2,2.8-22.6,6.2l-4.7-16.4c5.7-3.2,16.9-7.2,31.8-7.2c27.2,0,35.9,16,35.9,35.3v28.4
		c0,7.9,0.3,15.4,1.2,19.9H271.9z M268.9,73.1c-13.4-0.2-23.7,3-23.7,12.9c0,6.5,4.3,9.7,10,9.7c6.3,0,11.5-4.2,13.2-9.4
		c0.3-1.3,0.5-2.8,0.5-4.3V73.1z"/>
	<path fill="#8DC63F" d="M307.5,56.9c0-12-0.3-19.9-0.7-26.9h21.9l0.8,15h0.7c4.2-11.9,14.2-16.9,22.1-16.9c2.3,0,3.5,0,5.3,0.3
		v23.9c-1.8-0.3-4-0.7-6.9-0.7c-9.4,0-15.7,5-17.4,12.9c-0.3,1.7-0.5,3.7-0.5,5.7v41.4h-25.4V56.9z"/>
	<path fill="#8DC63F" d="M401.1,6.6V30h18.2v18.7h-18.2v29.6c0,9.9,2.3,14.4,10,14.4c3.2,0,5.7-0.3,7.5-0.7l0.2,19.2
		c-3.3,1.3-9.4,2.2-16.5,2.2c-8.2,0-15-2.8-19.1-7c-4.7-4.8-7-12.7-7-24.2V48.7h-10.9V30h10.9V12.3L401.1,6.6z"/>
	<path fill="#8DC63F" d="M434.4,8.6c7.6-1.2,18.8-2.2,31.3-2.2c15.4,0,26.2,2.3,33.6,8.2c6.2,4.9,9.6,12.2,9.6,21.7
		c0,13.3-9.4,22.4-18.3,25.6v0.5c7.2,2.9,11.3,9.9,13.9,19.4c3.2,11.7,6.5,25.3,8.5,29.3h-24.1c-1.7-2.9-4.2-11.4-7.2-24.2
		c-2.8-13-7.2-16.5-16.8-16.7h-7.1v40.9h-23.3V8.6z M457.7,53.3h9.3c11.7,0,18.7-5.9,18.7-15c0-9.6-6.5-14.3-17.3-14.5
		c-5.7,0-8.9,0.5-10.6,0.8V53.3z"/>
	<path fill="#8DC63F" d="M542.5,78.3c0.8,10.5,11.2,15.5,23.1,15.5c8.7,0,15.7-1.2,22.6-3.3l3.3,17.2c-8.4,3.3-18.5,5-29.6,5
		c-27.7,0-43.6-16-43.6-41.6c0-20.7,12.9-43.6,41.3-43.6c26.4,0,36.4,20.6,36.4,40.8c0,4.3-0.5,8.2-0.8,10H542.5z M572.4,61
		c0-6.2-2.7-16.5-14.4-16.5c-10.7,0-15,9.7-15.7,16.5H572.4z"/>
	<path fill="#8DC63F" d="M669.3,109.1c-4.5,2-13,3.7-22.7,3.7c-26.4,0-43.3-16-43.3-41.8c0-23.9,16.4-43.4,46.8-43.4
		c6.7,0,14,1.2,19.4,3.2l-4,18.9c-3-1.3-7.5-2.5-14.2-2.5c-13.4,0-22.1,9.5-21.9,22.9c0,15,10,22.9,22.4,22.9c6,0,10.7-1,14.5-2.5
		L669.3,109.1z"/>
	<path fill="#8DC63F" d="M697.9,78.3c0.8,10.5,11.2,15.5,23.1,15.5c8.7,0,15.7-1.2,22.6-3.3l3.3,17.2c-8.4,3.3-18.5,5-29.6,5
		c-27.7,0-43.6-16-43.6-41.6c0-20.7,12.9-43.6,41.3-43.6c26.4,0,36.4,20.6,36.4,40.8c0,4.3-0.5,8.2-0.8,10H697.9z M727.8,61
		c0-6.2-2.7-16.5-14.4-16.5c-10.7,0-15,9.7-15.7,16.5H727.8z"/>
	<path fill="#8DC63F" d="M787.5,12.2c0,6.6-5.1,12-13,12c-7.6,0-12.7-5.4-12.5-12c-0.2-7,4.9-12.2,12.7-12.2
		C782.4,0,787.3,5.2,787.5,12.2z M762.7,111.1V33.7h24.1v77.4H762.7z"/>
	<path fill="#8DC63F" d="M800.4,58.3c0-10.4-0.3-19.3-0.6-26.6h21.4l1.1,11h0.3c5.8-8.4,14.9-12.8,26.5-12.8
		c17.4,0,32.9,15.1,32.9,40.4c0,28.9-18.3,42.5-36,42.5c-9.6,0-17-3.9-20.6-9.1h-0.3v39.4h-24.7V58.3z M825.1,77
		c0,1.9,0.2,3.7,0.5,5.2c1.6,6.7,7.3,11.7,14.4,11.7c10.7,0,17-8.9,17-22.4c0-12.7-5.7-22.2-16.7-22.2c-7,0-13.1,5.2-14.8,12.5
		c-0.3,1.3-0.5,2.9-0.5,4.4V77z"/>
	<path fill="#8DC63F" d="M923.1,6v23.4h18.2v18.7h-18.2v29.6c0,9.9,2.3,14.4,10,14.4c3.2,0,5.7-0.3,7.5-0.7l0.2,19.2
		c-3.3,1.3-9.4,2.2-16.5,2.2c-8.2,0-15-2.8-19.1-7c-4.7-4.8-7-12.7-7-24.2V48.1h-10.9V29.4h10.9V11.7L923.1,6z"/>
	<path fill="#8DC63F" d="M938.9,10.8h-4.2V9.3h10.1v1.5h-4.2V23h-1.8V10.8z"/>
	<path fill="#8DC63F" d="M957.9,17c-0.1-1.9-0.2-4.2-0.2-5.9h-0.1c-0.5,1.6-1,3.3-1.7,5.2l-2.4,6.6h-1.3l-2.2-6.5
		c-0.6-1.9-1.2-3.7-1.6-5.3h0c0,1.7-0.1,4-0.3,6l-0.4,5.9H946l1-13.7h2.3l2.3,6.6c0.6,1.7,1,3.2,1.4,4.6h0.1
		c0.3-1.4,0.8-2.9,1.4-4.6l2.4-6.6h2.3L960,23h-1.7L957.9,17z"/>
</g>
</svg>
